Coordinates
version=1
nRows=7
nColumns=46
inDegrees=yes

Units are S.I. units (second, meters, Newtons, ...)
Angles are in degrees.

endheader
time	pelvis_tilt	pelvis_list	pelvis_rotation	pelvis_tx	pelvis_ty	pelvis_tz	bb_angle	bb_tx	bb_ty	bb_tz	hip_flexion_r	hip_adduction_r	hip_rotation_r	knee_angle_r	knee_angle_r_beta	ankle_angle_r	subtalar_angle_r	mtp_angle_r	crank_angle_r	hip_flexion_l	hip_adduction_l	hip_rotation_l	knee_angle_l	knee_angle_l_beta	ankle_angle_l	subtalar_angle_l	mtp_angle_l	crank_angle_l	lumbar_extension	lumbar_bending	lumbar_rotation	arm_flex_r	arm_add_r	arm_rot_r	elbow_flex_r	pro_sup_r	wrist_flex_r	wrist_dev_r	arm_flex_l	arm_add_l	arm_rot_l	elbow_flex_l	pro_sup_l	wrist_flex_l	wrist_dev_l
      0.00500000	    -28.87690229	     -5.55346324	     -6.43046532	      0.11521509	      1.11206115	     -0.22032102	      0.00000000	      0.50000000	      0.00000000	      0.25000000	     91.15637307	      4.62749066	      0.18390714	     80.13621598	      1.39864082	     23.50409226	     -7.82587558	      0.00000000	      0.00000000	     37.72511261	    -11.82361765	      0.61772325	     20.76897909	      0.36248707	     23.59404119	      0.62368097	      0.00000000	      0.00000000	    -44.94126565	      3.08213763	      7.47589389	     89.75972388	     -3.53320040	     32.75587517	     38.17600991	     26.77722143	      0.00000000	      0.00000000	     89.77454803	     -7.27110568	     29.30210540	     36.79046634	     26.32921829	      0.00000000	      0.00000000
      0.01000000	    -28.98911337	     -5.48519778	     -6.43215175	      0.11508270	      1.11201086	     -0.22048214	      0.00000000	      0.50000000	      0.00000000	      0.25000000	     91.24347524	      4.59698831	      0.24453620	     80.06542341	      1.39740526	     23.52462488	     -7.77217474	      0.00000000	      0.00000000	     37.80707375	    -11.73165697	      0.70281704	     20.69220149	      0.36114705	     23.48393993	      0.40819220	      0.00000000	      0.00000000	    -44.83853408	      3.04235514	      7.37094686	     89.75961264	     -3.61020815	     32.91219670	     37.90146889	     28.83566245	      0.00000000	      0.00000000	     89.77585958	     -7.41977635	     29.98195496	     36.45762097	     28.03014735	      0.00000000	      0.00000000
      0.01500000	    -28.97732873	     -5.52283667	     -6.44360842	      0.11498018	      1.11210101	     -0.22049424	      0.00000000	      0.50000000	      0.00000000	      0.25000000	     91.18903820	      4.61313066	      0.19783996	     79.98516503	      1.39600448	     23.52460408	     -7.84106563	      0.00000000	      0.00000000	     37.78326469	    -11.76698867	      0.71316121	     20.66368245	      0.36064929	     23.44681112	      0.34287168	      0.00000000	      0.00000000	    -44.86806295	      3.05730991	      7.44418277	     89.75982265	     -3.24143070	     31.80747342	     37.48878645	     29.56117667	      0.00000000	      0.00000000	     89.77452427	     -6.92904797	     28.60141506	     36.18196497	     28.81273589	      0.00000000	      0.00000000
      0.02000000	    -28.38161361	     -5.18536939	     -6.25043018	      0.11590421	      1.11326463	     -0.22191865	      0.00000000	      0.50000000	      0.00000000	      0.25000000	     90.38350011	      4.51108189	      0.62696811	     79.83712074	      1.39342062	     23.72547079	     -8.52744915	      0.00000000	      0.00000000	     37.43427976	    -11.48622517	     -0.24943455	     21.35270277	      0.37267497	     23.98484774	      1.28712961	      0.00000000	      0.00000000	    -45.44181298	      2.70686087	      7.08071704	     89.75890730	     -3.97442399	     33.00107555	     38.18382537	     27.98417366	      0.00000000	      0.00000000	     89.77854004	     -7.60175654	     30.86247931	     37.09070842	     26.88987918	      0.00000000	      0.00000000
      0.02500000	    -27.99172022	     -4.39567248	     -6.14808703	      0.11652316	      1.11426734	     -0.22361616	      0.00000000	      0.50000000	      0.00000000	      0.25000000	     90.04787155	      4.13134365	      1.39544214	     79.93516407	      1.39513180	     23.81047829	     -8.33763540	      0.00000000	      0.00000000	     36.93231684	    -10.77238814	     -1.17209958	     21.47842375	      0.37486921	     24.45156986	      1.56168830	      0.00000000	      0.00000000	    -45.78833361	      2.03565136	      6.57724042	     89.75695248	     -3.96861922	     32.39878084	     38.10738695	     27.69548187	      0.00000000	      0.00000000	     89.77956742	     -7.33712621	     30.72610318	     37.30244570	     26.63425429	      0.00000000	      0.00000000
      0.03000000	    -27.85098132	     -4.36287041	     -6.04087330	      0.11672249	      1.11434549	     -0.22397018	      0.00000000	      0.50000000	      0.00000000	      0.25000000	     89.90931494	      3.90454883	      1.37890516	     79.95860095	      1.39554085	     23.92384445	     -8.02102487	      0.00000000	      0.00000000	     36.45689542	    -10.25662563	     -0.19863840	     20.62597667	      0.35999120	     23.43836473	      0.25978845	      0.00000000	      0.00000000	    -45.91359738	      2.12185995	      6.51587565	     89.75906397	     -3.70196246	     31.89248346	     38.01232536	     27.28953759	      0.00000000	      0.00000000	     89.78568221	     -6.69247500	     29.81241015	     36.90257846	     26.06048920	      0.00000000	      0.00000000
      0.03500000	    -27.71739249	     -4.40746206	     -6.09544747	      0.11678531	      1.11448618	     -0.22384801	      0.00000000	      0.50000000	      0.00000000	      0.25000000	     89.76103117	      3.89803028	      1.26645565	     79.94857183	      1.39536581	     24.01849629	     -7.78221785	      0.00000000	      0.00000000	     36.30644236	    -10.29093459	     -0.24240437	     20.64106188	      0.36025449	     23.44308463	      0.09520523	      0.00000000	      0.00000000	    -46.09510911	      2.08146813	      6.58148272	     89.75838270	     -3.57699226	     31.33733932	     38.00175521	     27.87720965	      0.00000000	      0.00000000	     89.78313138	     -6.48965052	     29.02698601	     37.00180943	     26.66785533	      0.00000000	      0.00000000
